<mxfile host="Electron" modified="2024-04-20T06:22:52.638Z" agent="Mozilla/5.0 (Windows NT 10.0; Win64; x64) AppleWebKit/537.36 (KHTML, like Gecko) draw.io/24.2.5 Chrome/120.0.6099.109 Electron/28.1.0 Safari/537.36" etag="gbfJaE2ac9QbMfch8Cz0" version="24.2.5" type="device">
  <diagram name="Page-1" id="10a91c8b-09ff-31b1-d368-03940ed4cc9e">
    <mxGraphModel dx="803" dy="583" grid="1" gridSize="10" guides="1" tooltips="1" connect="1" arrows="1" fold="1" page="1" pageScale="1" pageWidth="1100" pageHeight="850" background="none" math="0" shadow="0">
      <root>
        <mxCell id="0" />
        <mxCell id="1" parent="0" />
        <mxCell id="SPXmf9FQjLf_qaQa1j5K-18" value="Creates" style="edgeStyle=orthogonalEdgeStyle;rounded=0;orthogonalLoop=1;jettySize=auto;html=1;exitX=1;exitY=0.5;exitDx=0;exitDy=0;entryX=0.5;entryY=0;entryDx=0;entryDy=0;" parent="1" source="SPXmf9FQjLf_qaQa1j5K-1" target="SPXmf9FQjLf_qaQa1j5K-3" edge="1">
          <mxGeometry relative="1" as="geometry" />
        </mxCell>
        <mxCell id="SPXmf9FQjLf_qaQa1j5K-23" value="Excecutes in" style="edgeStyle=orthogonalEdgeStyle;rounded=0;orthogonalLoop=1;jettySize=auto;html=1;entryX=0.5;entryY=0;entryDx=0;entryDy=0;" parent="1" source="SPXmf9FQjLf_qaQa1j5K-1" target="SPXmf9FQjLf_qaQa1j5K-17" edge="1">
          <mxGeometry x="-0.0028" relative="1" as="geometry">
            <mxPoint as="offset" />
          </mxGeometry>
        </mxCell>
        <mxCell id="SPXmf9FQjLf_qaQa1j5K-26" value="Excecutes" style="edgeStyle=orthogonalEdgeStyle;rounded=0;orthogonalLoop=1;jettySize=auto;html=1;exitX=0;exitY=1;exitDx=0;exitDy=0;entryX=0.5;entryY=0;entryDx=0;entryDy=0;" parent="1" source="SPXmf9FQjLf_qaQa1j5K-1" target="SPXmf9FQjLf_qaQa1j5K-25" edge="1">
          <mxGeometry relative="1" as="geometry" />
        </mxCell>
        <mxCell id="SPXmf9FQjLf_qaQa1j5K-1" value="Comands" style="rounded=0;whiteSpace=wrap;html=1;" parent="1" vertex="1">
          <mxGeometry x="525" y="236" width="120" height="60" as="geometry" />
        </mxCell>
        <mxCell id="SPXmf9FQjLf_qaQa1j5K-4" style="edgeStyle=orthogonalEdgeStyle;rounded=0;orthogonalLoop=1;jettySize=auto;html=1;exitX=1;exitY=0.5;exitDx=0;exitDy=0;entryX=0;entryY=0.5;entryDx=0;entryDy=0;" parent="1" source="SPXmf9FQjLf_qaQa1j5K-2" target="SPXmf9FQjLf_qaQa1j5K-1" edge="1">
          <mxGeometry relative="1" as="geometry" />
        </mxCell>
        <mxCell id="SPXmf9FQjLf_qaQa1j5K-2" value="Conveter" style="rounded=0;whiteSpace=wrap;html=1;" parent="1" vertex="1">
          <mxGeometry x="125" y="236" width="120" height="60" as="geometry" />
        </mxCell>
        <mxCell id="SPXmf9FQjLf_qaQa1j5K-19" value="In" style="edgeStyle=orthogonalEdgeStyle;rounded=0;orthogonalLoop=1;jettySize=auto;html=1;exitX=0.5;exitY=1;exitDx=0;exitDy=0;entryX=0.14;entryY=-0.07;entryDx=0;entryDy=0;entryPerimeter=0;" parent="1" source="SPXmf9FQjLf_qaQa1j5K-3" target="SPXmf9FQjLf_qaQa1j5K-17" edge="1">
          <mxGeometry relative="1" as="geometry" />
        </mxCell>
        <mxCell id="SPXmf9FQjLf_qaQa1j5K-17" value="THREE ENGINE" style="shape=process;whiteSpace=wrap;html=1;backgroundOutline=1;" parent="1" vertex="1">
          <mxGeometry x="785" y="606" width="120" height="60" as="geometry" />
        </mxCell>
        <mxCell id="SPXmf9FQjLf_qaQa1j5K-28" value="" style="edgeStyle=none;orthogonalLoop=1;jettySize=auto;html=1;rounded=0;entryX=0.5;entryY=0;entryDx=0;entryDy=0;" parent="1" target="SPXmf9FQjLf_qaQa1j5K-2" edge="1">
          <mxGeometry width="100" relative="1" as="geometry">
            <mxPoint x="185" y="176" as="sourcePoint" />
            <mxPoint x="275" y="116" as="targetPoint" />
            <Array as="points" />
          </mxGeometry>
        </mxCell>
        <mxCell id="SPXmf9FQjLf_qaQa1j5K-34" value="Uses" style="edgeStyle=orthogonalEdgeStyle;rounded=0;orthogonalLoop=1;jettySize=auto;html=1;exitX=0.5;exitY=1;exitDx=0;exitDy=0;entryX=0;entryY=0.5;entryDx=0;entryDy=0;" parent="1" source="SPXmf9FQjLf_qaQa1j5K-25" target="SPXmf9FQjLf_qaQa1j5K-17" edge="1">
          <mxGeometry relative="1" as="geometry" />
        </mxCell>
        <mxCell id="SPXmf9FQjLf_qaQa1j5K-3" value="Region" style="rounded=0;whiteSpace=wrap;html=1;" parent="1" vertex="1">
          <mxGeometry x="575" y="384" width="120" height="60" as="geometry" />
        </mxCell>
        <mxCell id="DUn906y4I7jW9QkCFNBw-2" value="USES" style="edgeStyle=orthogonalEdgeStyle;rounded=0;orthogonalLoop=1;jettySize=auto;html=1;entryX=0.5;entryY=0;entryDx=0;entryDy=0;" edge="1" parent="1" source="SPXmf9FQjLf_qaQa1j5K-25" target="DUn906y4I7jW9QkCFNBw-11">
          <mxGeometry relative="1" as="geometry" />
        </mxCell>
        <mxCell id="SPXmf9FQjLf_qaQa1j5K-25" value="Run" style="rounded=0;whiteSpace=wrap;html=1;" parent="1" vertex="1">
          <mxGeometry x="315" y="384" width="120" height="60" as="geometry" />
        </mxCell>
        <mxCell id="SPXmf9FQjLf_qaQa1j5K-32" value="Handles motion" style="label;fontStyle=0;strokeColor=none;fillColor=none;align=left;verticalAlign=top;overflow=hidden;spacingLeft=28;spacingRight=4;rotatable=0;points=[[0,0.5],[1,0.5]];portConstraint=eastwest;imageWidth=16;imageHeight=16;whiteSpace=wrap;html=1;image=img/clipart/Gear_128x128.png" parent="1" vertex="1">
          <mxGeometry x="90" y="453" width="120" height="26" as="geometry" />
        </mxCell>
        <mxCell id="SPXmf9FQjLf_qaQa1j5K-22" value="Handles Boundaries" style="label;fontStyle=0;strokeColor=none;fillColor=none;align=left;verticalAlign=top;overflow=hidden;spacingLeft=28;spacingRight=4;rotatable=0;points=[[0,0.5],[1,0.5]];portConstraint=eastwest;imageWidth=16;imageHeight=16;whiteSpace=wrap;html=1;image=img/clipart/Gear_128x128.png" parent="1" vertex="1">
          <mxGeometry x="435" y="418" width="150" height="26" as="geometry" />
        </mxCell>
        <mxCell id="DUn906y4I7jW9QkCFNBw-4" value="USES" style="edgeStyle=orthogonalEdgeStyle;rounded=0;orthogonalLoop=1;jettySize=auto;html=1;" edge="1" parent="1" source="DUn906y4I7jW9QkCFNBw-1" target="DUn906y4I7jW9QkCFNBw-3">
          <mxGeometry relative="1" as="geometry" />
        </mxCell>
        <mxCell id="DUn906y4I7jW9QkCFNBw-1" value="Stormer Verlet" style="shape=hexagon;perimeter=hexagonPerimeter2;whiteSpace=wrap;html=1;fixedSize=1;" vertex="1" parent="1">
          <mxGeometry x="210" y="526" width="90" height="60" as="geometry" />
        </mxCell>
        <mxCell id="DUn906y4I7jW9QkCFNBw-6" value="" style="edgeStyle=orthogonalEdgeStyle;rounded=0;orthogonalLoop=1;jettySize=auto;html=1;" edge="1" parent="1" source="DUn906y4I7jW9QkCFNBw-3" target="DUn906y4I7jW9QkCFNBw-5">
          <mxGeometry relative="1" as="geometry" />
        </mxCell>
        <mxCell id="DUn906y4I7jW9QkCFNBw-3" value="Get aceleration" style="shape=hexagon;perimeter=hexagonPerimeter2;whiteSpace=wrap;html=1;fixedSize=1;" vertex="1" parent="1">
          <mxGeometry x="210" y="636" width="90" height="60" as="geometry" />
        </mxCell>
        <mxCell id="DUn906y4I7jW9QkCFNBw-5" value="Lennard Jones Potential" style="shape=hexagon;perimeter=hexagonPerimeter2;whiteSpace=wrap;html=1;fixedSize=1;" vertex="1" parent="1">
          <mxGeometry x="210" y="716" width="90" height="60" as="geometry" />
        </mxCell>
        <mxCell id="DUn906y4I7jW9QkCFNBw-7" value="Parse Input" style="label;fontStyle=0;strokeColor=none;fillColor=none;align=left;verticalAlign=top;overflow=hidden;spacingLeft=28;spacingRight=4;rotatable=0;points=[[0,0.5],[1,0.5]];portConstraint=eastwest;imageWidth=16;imageHeight=16;whiteSpace=wrap;html=1;image=img/clipart/Gear_128x128.png" vertex="1" parent="1">
          <mxGeometry x="195" y="186" width="120" height="26" as="geometry" />
        </mxCell>
        <mxCell id="DUn906y4I7jW9QkCFNBw-8" value="Read Input" style="label;fontStyle=0;strokeColor=none;fillColor=none;align=left;verticalAlign=top;overflow=hidden;spacingLeft=28;spacingRight=4;rotatable=0;points=[[0,0.5],[1,0.5]];portConstraint=eastwest;imageWidth=16;imageHeight=16;whiteSpace=wrap;html=1;image=img/clipart/Gear_128x128.png" vertex="1" parent="1">
          <mxGeometry x="195" y="160" width="120" height="26" as="geometry" />
        </mxCell>
        <mxCell id="DUn906y4I7jW9QkCFNBw-9" value="Call comands" style="label;fontStyle=0;strokeColor=none;fillColor=none;align=left;verticalAlign=top;overflow=hidden;spacingLeft=28;spacingRight=4;rotatable=0;points=[[0,0.5],[1,0.5]];portConstraint=eastwest;imageWidth=16;imageHeight=16;whiteSpace=wrap;html=1;image=img/clipart/Gear_128x128.png" vertex="1" parent="1">
          <mxGeometry x="195" y="210" width="120" height="26" as="geometry" />
        </mxCell>
        <mxCell id="DUn906y4I7jW9QkCFNBw-12" style="edgeStyle=orthogonalEdgeStyle;rounded=0;orthogonalLoop=1;jettySize=auto;html=1;entryX=0.5;entryY=0;entryDx=0;entryDy=0;" edge="1" parent="1" source="DUn906y4I7jW9QkCFNBw-11" target="DUn906y4I7jW9QkCFNBw-1">
          <mxGeometry relative="1" as="geometry" />
        </mxCell>
        <mxCell id="DUn906y4I7jW9QkCFNBw-11" value="Run Motion" style="shape=hexagon;perimeter=hexagonPerimeter2;whiteSpace=wrap;html=1;fixedSize=1;fillColor=#a20025;fontColor=#ffffff;strokeColor=#6F0000;" vertex="1" parent="1">
          <mxGeometry x="210" y="436" width="90" height="60" as="geometry" />
        </mxCell>
      </root>
    </mxGraphModel>
  </diagram>
</mxfile>
